<svg width="26" height="29" viewBox="0 0 26 29" fill="none" xmlns="http://www.w3.org/2000/svg">
<g filter="url(#filter0_d_74:7)">
<path fill-rule="evenodd" clip-rule="evenodd" d="M4 8C4 5.239 6.239 3 9 3H17C19.761 3 22 5.239 22 8V16C22 18.761 19.761 21 17 21H9C6.239 21 4 18.761 4 16V8ZM20 6C20 5.448 19.552 5 19 5C18.448 5 18 5.448 18 6C18 6.552 18.448 7 19 7C19.552 7 20 6.552 20 6ZM18 12C18 9.239 15.761 7 13 7C10.239 7 8 9.239 8 12C8 14.761 10.239 17 13 17C15.761 17 18 14.761 18 12ZM10.8787 9.87868C11.4413 9.31607 12.2044 9 13 9C13.7956 9 14.5587 9.31607 15.1213 9.87868C15.6839 10.4413 16 11.2044 16 12C16 12.7956 15.6839 13.5587 15.1213 14.1213C14.5587 14.6839 13.7956 15 13 15C12.2044 15 11.4413 14.6839 10.8787 14.1213C10.3161 13.5587 10 12.7956 10 12C10 11.2044 10.3161 10.4413 10.8787 9.87868Z" fill="#310A90"/>
</g>
<defs>
<filter id="filter0_d_74:7" x="-3" y="0" width="32" height="32" filterUnits="userSpaceOnUse" color-interpolation-filters="sRGB">
<feFlood flood-opacity="0" result="BackgroundImageFix"/>
<feColorMatrix in="SourceAlpha" type="matrix" values="0 0 0 0 0 0 0 0 0 0 0 0 0 0 0 0 0 0 127 0" result="hardAlpha"/>
<feOffset dy="4"/>
<feGaussianBlur stdDeviation="2"/>
<feComposite in2="hardAlpha" operator="out"/>
<feColorMatrix type="matrix" values="0 0 0 0 0 0 0 0 0 0 0 0 0 0 0 0 0 0 0.25 0"/>
<feBlend mode="normal" in2="BackgroundImageFix" result="effect1_dropShadow_74:7"/>
<feBlend mode="normal" in="SourceGraphic" in2="effect1_dropShadow_74:7" result="shape"/>
</filter>
</defs>
</svg>
